<mxfile host="" modified="2020-07-06T22:55:09.584Z" agent="5.0 (Windows NT 10.0; Win64; x64) AppleWebKit/537.36 (KHTML, like Gecko) Code/1.46.1 Chrome/78.0.3904.130 Electron/7.3.1 Safari/537.36" etag="ssQ02oPX78Tr2-wn2HXp" version="13.1.3">
    <diagram id="6hGFLwfOUW9BJ-s0fimq" name="Page-1">
        <mxGraphModel dx="1222" dy="932" grid="1" gridSize="10" guides="1" tooltips="1" connect="1" arrows="1" fold="1" page="1" pageScale="1" pageWidth="827" pageHeight="1169" math="0" shadow="0">
            <root>
                <mxCell id="0"/>
                <mxCell id="1" parent="0"/>
                <mxCell id="2" value="&lt;p style=&quot;margin: 0px ; margin-top: 4px ; text-align: center&quot;&gt;&lt;i&gt;&amp;lt;&amp;lt;Interface&amp;gt;&amp;gt;&lt;/i&gt;&lt;br&gt;&lt;/p&gt;&lt;p style=&quot;margin: 0px ; margin-top: 4px ; text-align: center&quot;&gt;&lt;b&gt;IRaycastable&lt;/b&gt;&lt;/p&gt;&lt;hr size=&quot;1&quot;&gt;&lt;p style=&quot;margin: 4px 0px 0px&quot;&gt;&lt;b&gt;+ HandleRaycast(PlayerController) : bool&lt;/b&gt;&lt;/p&gt;&lt;p style=&quot;margin: 4px 0px 0px&quot;&gt;&lt;b&gt;+ GetCursorType() : CursorType&lt;/b&gt;&lt;/p&gt;" style="verticalAlign=top;align=left;overflow=fill;fontSize=12;fontFamily=Helvetica;html=1;" vertex="1" parent="1">
                    <mxGeometry x="580" y="126" width="240" height="96" as="geometry"/>
                </mxCell>
                <mxCell id="3" value="" style="endArrow=block;dashed=1;endFill=0;endSize=12;html=1;entryX=0.5;entryY=1;entryDx=0;entryDy=0;exitX=0.5;exitY=0;exitDx=0;exitDy=0;" edge="1" parent="1" source="13" target="2">
                    <mxGeometry width="160" relative="1" as="geometry">
                        <mxPoint x="580" y="226" as="sourcePoint"/>
                        <mxPoint x="640" y="406" as="targetPoint"/>
                    </mxGeometry>
                </mxCell>
                <mxCell id="21" value="" style="endArrow=block;dashed=1;endFill=0;endSize=12;html=1;entryX=0.5;entryY=1;entryDx=0;entryDy=0;exitX=0.5;exitY=0;exitDx=0;exitDy=0;" edge="1" parent="1" source="9" target="2">
                    <mxGeometry width="160" relative="1" as="geometry">
                        <mxPoint x="590" y="236" as="sourcePoint"/>
                        <mxPoint x="590" y="152" as="targetPoint"/>
                    </mxGeometry>
                </mxCell>
                <mxCell id="22" value="" style="endArrow=block;dashed=1;endFill=0;endSize=12;html=1;entryX=0.5;entryY=1;entryDx=0;entryDy=0;exitX=0.5;exitY=0;exitDx=0;exitDy=0;" edge="1" parent="1" source="17" target="2">
                    <mxGeometry width="160" relative="1" as="geometry">
                        <mxPoint x="780" y="230" as="sourcePoint"/>
                        <mxPoint x="590" y="152" as="targetPoint"/>
                    </mxGeometry>
                </mxCell>
                <mxCell id="25" value="" style="rounded=1;whiteSpace=wrap;html=1;" vertex="1" parent="1">
                    <mxGeometry x="635" y="730" width="170" height="120" as="geometry"/>
                </mxCell>
                <mxCell id="26" value="Â«interfaceÂ»&lt;br&gt;&lt;b&gt;ISaveable&lt;/b&gt;" style="html=1;" vertex="1" parent="1">
                    <mxGeometry x="665" y="775" width="110" height="50" as="geometry"/>
                </mxCell>
                <mxCell id="27" value="SavingSystem" style="text;html=1;strokeColor=none;fillColor=none;align=center;verticalAlign=middle;whiteSpace=wrap;rounded=0;" vertex="1" parent="1">
                    <mxGeometry x="665" y="745" width="80" height="20" as="geometry"/>
                </mxCell>
                <mxCell id="28" value="&lt;p style=&quot;margin: 0px ; margin-top: 4px ; text-align: center&quot;&gt;&lt;i&gt;&amp;lt;&amp;lt;Interface&amp;gt;&amp;gt;&lt;/i&gt;&lt;br&gt;&lt;b&gt;IAction&lt;/b&gt;&lt;/p&gt;&lt;hr size=&quot;1&quot;&gt;&lt;p style=&quot;margin: 0px ; margin-left: 4px&quot;&gt;+&amp;nbsp;Cancel();&lt;/p&gt;" style="verticalAlign=top;align=left;overflow=fill;fontSize=12;fontFamily=Helvetica;html=1;" vertex="1" parent="1">
                    <mxGeometry x="630" y="515" width="190" height="70" as="geometry"/>
                </mxCell>
                <mxCell id="41" value="" style="endArrow=block;dashed=1;endFill=0;endSize=12;html=1;entryX=0.5;entryY=1;entryDx=0;entryDy=0;" edge="1" parent="1" source="29" target="28">
                    <mxGeometry width="160" relative="1" as="geometry">
                        <mxPoint x="780" y="230" as="sourcePoint"/>
                        <mxPoint x="780" y="152" as="targetPoint"/>
                    </mxGeometry>
                </mxCell>
                <mxCell id="42" value="" style="endArrow=block;dashed=1;endFill=0;endSize=12;html=1;entryX=0.5;entryY=1;entryDx=0;entryDy=0;exitX=0.5;exitY=0;exitDx=0;exitDy=0;" edge="1" parent="1" source="37" target="28">
                    <mxGeometry width="160" relative="1" as="geometry">
                        <mxPoint x="585" y="496" as="sourcePoint"/>
                        <mxPoint x="705" y="422" as="targetPoint"/>
                    </mxGeometry>
                </mxCell>
                <mxCell id="48" value="1" style="endArrow=open;html=1;endSize=12;startArrow=diamondThin;startSize=14;startFill=1;edgeStyle=orthogonalEdgeStyle;align=left;verticalAlign=bottom;" edge="1" parent="1" source="43" target="28">
                    <mxGeometry x="-1" y="3" relative="1" as="geometry">
                        <mxPoint x="145" y="575" as="sourcePoint"/>
                        <mxPoint x="305" y="575" as="targetPoint"/>
                    </mxGeometry>
                </mxCell>
                <mxCell id="57" value="" style="endArrow=block;dashed=1;endFill=0;endSize=12;html=1;entryX=0.5;entryY=1;entryDx=0;entryDy=0;exitX=0.5;exitY=0;exitDx=0;exitDy=0;" edge="1" parent="1" source="37" target="26">
                    <mxGeometry width="160" relative="1" as="geometry">
                        <mxPoint x="834" y="496" as="sourcePoint"/>
                        <mxPoint x="705" y="422" as="targetPoint"/>
                    </mxGeometry>
                </mxCell>
                <mxCell id="60" value="" style="endArrow=block;dashed=1;endFill=0;endSize=12;html=1;" edge="1" parent="1" source="29" target="26">
                    <mxGeometry width="160" relative="1" as="geometry">
                        <mxPoint x="650" y="575.6825396825398" as="sourcePoint"/>
                        <mxPoint x="869.9999999999995" y="436" as="targetPoint"/>
                    </mxGeometry>
                </mxCell>
                <mxCell id="62" value="1" style="endArrow=open;html=1;endSize=12;startArrow=diamondThin;startSize=14;startFill=1;align=left;verticalAlign=bottom;" edge="1" parent="1" source="53" target="13">
                    <mxGeometry x="-1" y="3" relative="1" as="geometry">
                        <mxPoint x="920" y="426" as="sourcePoint"/>
                        <mxPoint x="730" y="356" as="targetPoint"/>
                    </mxGeometry>
                </mxCell>
                <mxCell id="63" value="1" style="endArrow=open;html=1;endSize=12;startArrow=diamondThin;startSize=14;startFill=1;align=left;verticalAlign=bottom;entryX=0.205;entryY=0.403;entryDx=0;entryDy=0;entryPerimeter=0;" edge="1" parent="1" source="53" target="9">
                    <mxGeometry x="-1" y="3" relative="1" as="geometry">
                        <mxPoint x="240" y="224.20512820512818" as="sourcePoint"/>
                        <mxPoint x="460" y="154.2564102564104" as="targetPoint"/>
                    </mxGeometry>
                </mxCell>
                <mxCell id="64" value="1" style="endArrow=open;html=1;endSize=12;startArrow=diamondThin;startSize=14;startFill=1;align=left;verticalAlign=bottom;" edge="1" parent="1" source="53" target="17">
                    <mxGeometry x="-1" y="3" relative="1" as="geometry">
                        <mxPoint x="240" y="247.67077717235452" as="sourcePoint"/>
                        <mxPoint x="488.6999999999998" y="226.9559999999999" as="targetPoint"/>
                    </mxGeometry>
                </mxCell>
                <mxCell id="65" value="1" style="endArrow=open;html=1;endSize=12;startArrow=diamondThin;startSize=14;startFill=1;align=left;verticalAlign=bottom;" edge="1" parent="1" source="53" target="29">
                    <mxGeometry x="-1" y="3" relative="1" as="geometry">
                        <mxPoint x="240" y="273.948717948718" as="sourcePoint"/>
                        <mxPoint x="460" y="313.43589743589746" as="targetPoint"/>
                    </mxGeometry>
                </mxCell>
                <mxCell id="66" value="1" style="endArrow=open;html=1;endSize=12;startArrow=diamondThin;startSize=14;startFill=1;align=left;verticalAlign=bottom;entryX=0.25;entryY=0;entryDx=0;entryDy=0;" edge="1" parent="1" source="53" target="37">
                    <mxGeometry x="-1" y="3" relative="1" as="geometry">
                        <mxPoint x="240" y="347.566265060241" as="sourcePoint"/>
                        <mxPoint x="460" y="549.0120481927713" as="targetPoint"/>
                    </mxGeometry>
                </mxCell>
                <mxCell id="67" value="1" style="endArrow=open;html=1;endSize=12;startArrow=diamondThin;startSize=14;startFill=1;align=left;verticalAlign=bottom;" edge="1" parent="1" source="49" target="37">
                    <mxGeometry x="-1" y="3" relative="1" as="geometry">
                        <mxPoint x="203.87096774193537" y="365.9999999999998" as="sourcePoint"/>
                        <mxPoint x="500" y="876" as="targetPoint"/>
                    </mxGeometry>
                </mxCell>
                <mxCell id="68" value="1" style="endArrow=open;html=1;endSize=12;startArrow=diamondThin;startSize=14;startFill=1;align=left;verticalAlign=bottom;" edge="1" parent="1" source="49" target="29">
                    <mxGeometry x="-1" y="3" relative="1" as="geometry">
                        <mxPoint x="220" y="761.3658536585367" as="sourcePoint"/>
                        <mxPoint x="460" y="922.3414634146341" as="targetPoint"/>
                    </mxGeometry>
                </mxCell>
                <mxCell id="53" value="PlayerController" style="swimlane;fontStyle=1;align=center;verticalAlign=top;childLayout=stackLayout;horizontal=1;startSize=26;horizontalStack=0;resizeParent=1;resizeParentMax=0;resizeLast=0;collapsible=1;marginBottom=0;" vertex="1" parent="1">
                    <mxGeometry x="30" y="136" width="200" height="220" as="geometry"/>
                </mxCell>
                <mxCell id="54" value="+ cursorMappings&#10;+ isDraggingUI&#10;+ maxNavMeshProjectileDistance&#10;+ raycastRadius" style="text;strokeColor=none;fillColor=none;align=left;verticalAlign=top;spacingLeft=4;spacingRight=4;overflow=hidden;rotatable=0;points=[[0,0.5],[1,0.5]];portConstraint=eastwest;" vertex="1" parent="53">
                    <mxGeometry y="26" width="200" height="64" as="geometry"/>
                </mxCell>
                <mxCell id="55" value="" style="line;strokeWidth=1;fillColor=none;align=left;verticalAlign=middle;spacingTop=-1;spacingLeft=3;spacingRight=3;rotatable=0;labelPosition=right;points=[];portConstraint=eastwest;" vertex="1" parent="53">
                    <mxGeometry y="90" width="200" height="8" as="geometry"/>
                </mxCell>
                <mxCell id="56" value="+ GetCursorMapping(CursorType)&#10;+ GetMouseRay()&#10;+ InteractWithComponent()&#10;+ InteractWithMovement()&#10;+ InteractWithUI()&#10;+ RaycastAllSorted()&#10;+ RaycastNavMesh(Vector3)&#10;+ SetCursor(CursorType)" style="text;strokeColor=none;fillColor=none;align=left;verticalAlign=top;spacingLeft=4;spacingRight=4;overflow=hidden;rotatable=0;points=[[0,0.5],[1,0.5]];portConstraint=eastwest;" vertex="1" parent="53">
                    <mxGeometry y="98" width="200" height="122" as="geometry"/>
                </mxCell>
                <mxCell id="13" value="CombatTarget" style="swimlane;fontStyle=0;childLayout=stackLayout;horizontal=1;startSize=26;fillColor=none;horizontalStack=0;resizeParent=1;resizeParentMax=0;resizeLast=0;collapsible=1;marginBottom=0;" vertex="1" parent="1">
                    <mxGeometry x="360" y="70" width="140" height="52" as="geometry"/>
                </mxCell>
                <mxCell id="17" value="ClickablePickup" style="swimlane;fontStyle=0;childLayout=stackLayout;horizontal=1;startSize=26;fillColor=none;horizontalStack=0;resizeParent=1;resizeParentMax=0;resizeLast=0;collapsible=1;marginBottom=0;" vertex="1" parent="1">
                    <mxGeometry x="360" y="264" width="140" height="52" as="geometry"/>
                </mxCell>
                <mxCell id="9" value="WeaponPickup" style="swimlane;fontStyle=0;childLayout=stackLayout;horizontal=1;startSize=26;fillColor=none;horizontalStack=0;resizeParent=1;resizeParentMax=0;resizeLast=0;collapsible=1;marginBottom=0;" vertex="1" parent="1">
                    <mxGeometry x="360" y="170" width="140" height="52" as="geometry"/>
                </mxCell>
                <mxCell id="37" value="Mover" style="swimlane;fontStyle=1;align=center;verticalAlign=top;childLayout=stackLayout;horizontal=1;startSize=26;horizontalStack=0;resizeParent=1;resizeParentMax=0;resizeLast=0;collapsible=1;marginBottom=0;" vertex="1" parent="1">
                    <mxGeometry x="360" y="840" width="160" height="200" as="geometry"/>
                </mxCell>
                <mxCell id="38" value="+ health&#10;+ maxNavPathLength&#10;+ maxSpeed&#10;+ navMeshAgent&#10;+ target" style="text;strokeColor=none;fillColor=none;align=left;verticalAlign=top;spacingLeft=4;spacingRight=4;overflow=hidden;rotatable=0;points=[[0,0.5],[1,0.5]];portConstraint=eastwest;" vertex="1" parent="37">
                    <mxGeometry y="26" width="160" height="74" as="geometry"/>
                </mxCell>
                <mxCell id="39" value="" style="line;strokeWidth=1;fillColor=none;align=left;verticalAlign=middle;spacingTop=-1;spacingLeft=3;spacingRight=3;rotatable=0;labelPosition=right;points=[];portConstraint=eastwest;" vertex="1" parent="37">
                    <mxGeometry y="100" width="160" height="8" as="geometry"/>
                </mxCell>
                <mxCell id="40" value="+ Cancel()&#10;+ CanMoveTo(Vector3)&#10;+ GetPathLength(NavMeshPath)&#10;+ MoveTo(Vector3, float)&#10;+ StartMoveAction(Vector3, float)&#10;+ UpdateAnimator()" style="text;strokeColor=none;fillColor=none;align=left;verticalAlign=top;spacingLeft=4;spacingRight=4;overflow=hidden;rotatable=0;points=[[0,0.5],[1,0.5]];portConstraint=eastwest;" vertex="1" parent="37">
                    <mxGeometry y="108" width="160" height="92" as="geometry"/>
                </mxCell>
                <mxCell id="49" value="AIController" style="swimlane;fontStyle=1;align=center;verticalAlign=top;childLayout=stackLayout;horizontal=1;startSize=26;horizontalStack=0;resizeParent=1;resizeParentMax=0;resizeLast=0;collapsible=1;marginBottom=0;" vertex="1" parent="1">
                    <mxGeometry x="40" y="450" width="180" height="410" as="geometry"/>
                </mxCell>
                <mxCell id="50" value="+ agroCooldownTime&#10;+ chaseDistance&#10;+ currentWaypointIndex&#10;+ guardPosition&#10;+ patrolPath&#10;+ patrolSpeedFraction&#10;+ shoutDistance&#10;+ suspicionTime&#10;+ timeSinceAggrevated&#10;+ timeSinceArrivedAtWaypoint&#10;+ timeSinceLastSawPlayer&#10;+ waypointDwellTime&#10;+ waypointTolerance" style="text;strokeColor=none;fillColor=none;align=left;verticalAlign=top;spacingLeft=4;spacingRight=4;overflow=hidden;rotatable=0;points=[[0,0.5],[1,0.5]];portConstraint=eastwest;" vertex="1" parent="49">
                    <mxGeometry y="26" width="180" height="194" as="geometry"/>
                </mxCell>
                <mxCell id="51" value="" style="line;strokeWidth=1;fillColor=none;align=left;verticalAlign=middle;spacingTop=-1;spacingLeft=3;spacingRight=3;rotatable=0;labelPosition=right;points=[];portConstraint=eastwest;" vertex="1" parent="49">
                    <mxGeometry y="220" width="180" height="8" as="geometry"/>
                </mxCell>
                <mxCell id="52" value="+ Aggrevate()&#10;+ AggrevateNearbyEnemies()&#10;+ AttackBehaviour()&#10;+ AtWaypoint()&#10;+ CycleWaypoint()&#10;+ GetCurrentWaypoint()&#10;+ GetGuardPosition()&#10;+ IsAggrevated()&#10;+ OnDrawGizmosSelected()&#10;+ PatrolBehaviour()&#10;+ SuspicionBehaviour()&#10;+ UpdateTimers()" style="text;strokeColor=none;fillColor=none;align=left;verticalAlign=top;spacingLeft=4;spacingRight=4;overflow=hidden;rotatable=0;points=[[0,0.5],[1,0.5]];portConstraint=eastwest;" vertex="1" parent="49">
                    <mxGeometry y="228" width="180" height="182" as="geometry"/>
                </mxCell>
                <mxCell id="29" value="Fighter" style="swimlane;fontStyle=1;align=center;verticalAlign=top;childLayout=stackLayout;horizontal=1;startSize=26;horizontalStack=0;resizeParent=1;resizeParentMax=0;resizeLast=0;collapsible=1;marginBottom=0;" vertex="1" parent="1">
                    <mxGeometry x="345" y="395" width="190" height="380" as="geometry"/>
                </mxCell>
                <mxCell id="30" value="+ currentWeapon&#10;+ currentWeaponConfig&#10;+ defaultWeaponConfig&#10;+ equipment&#10;+ leftHandTransform&#10;+ mover&#10;+ rightHandTransform&#10;+ target&#10;+ timeBetweenAttacks&#10;+ timeSinceLastAttack" style="text;strokeColor=none;fillColor=none;align=left;verticalAlign=top;spacingLeft=4;spacingRight=4;overflow=hidden;rotatable=0;points=[[0,0.5],[1,0.5]];portConstraint=eastwest;" vertex="1" parent="29">
                    <mxGeometry y="26" width="190" height="144" as="geometry"/>
                </mxCell>
                <mxCell id="31" value="" style="line;strokeWidth=1;fillColor=none;align=left;verticalAlign=middle;spacingTop=-1;spacingLeft=3;spacingRight=3;rotatable=0;labelPosition=right;points=[];portConstraint=eastwest;" vertex="1" parent="29">
                    <mxGeometry y="170" width="190" height="8" as="geometry"/>
                </mxCell>
                <mxCell id="32" value="+ AttachWeapon(WeaponConfig)&#10;+ Attack(GameObject)&#10;+ AttackBehaviour()&#10;+ CanAttack(GameObject)&#10;+ EquipWeapon(WeaponConfig)&#10;+ GetIsInRange(Transform)&#10;+ GetTarget()&#10;+ Hit()&#10;+ SetDefaultWeapon()&#10;+ Shoot()&#10;+ Start()&#10;+ StopAttack()&#10;+ TriggerAttack()&#10;+ UpdateWeapon()" style="text;strokeColor=none;fillColor=none;align=left;verticalAlign=top;spacingLeft=4;spacingRight=4;overflow=hidden;rotatable=0;points=[[0,0.5],[1,0.5]];portConstraint=eastwest;" vertex="1" parent="29">
                    <mxGeometry y="178" width="190" height="202" as="geometry"/>
                </mxCell>
                <mxCell id="43" value="ActionScheduler" style="swimlane;fontStyle=1;align=center;verticalAlign=top;childLayout=stackLayout;horizontal=1;startSize=26;horizontalStack=0;resizeParent=1;resizeParentMax=0;resizeLast=0;collapsible=1;marginBottom=0;" vertex="1" parent="1">
                    <mxGeometry x="645" y="345" width="160" height="100" as="geometry"/>
                </mxCell>
                <mxCell id="44" value="- currentAction : IAction" style="text;strokeColor=none;fillColor=none;align=left;verticalAlign=top;spacingLeft=4;spacingRight=4;overflow=hidden;rotatable=0;points=[[0,0.5],[1,0.5]];portConstraint=eastwest;" vertex="1" parent="43">
                    <mxGeometry y="26" width="160" height="26" as="geometry"/>
                </mxCell>
                <mxCell id="45" value="" style="line;strokeWidth=1;fillColor=none;align=left;verticalAlign=middle;spacingTop=-1;spacingLeft=3;spacingRight=3;rotatable=0;labelPosition=right;points=[];portConstraint=eastwest;" vertex="1" parent="43">
                    <mxGeometry y="52" width="160" height="8" as="geometry"/>
                </mxCell>
                <mxCell id="46" value="+ StartAction(IAction)&#10;+ CancelCurrentAction()" style="text;strokeColor=none;fillColor=none;align=left;verticalAlign=top;spacingLeft=4;spacingRight=4;overflow=hidden;rotatable=0;points=[[0,0.5],[1,0.5]];portConstraint=eastwest;" vertex="1" parent="43">
                    <mxGeometry y="60" width="160" height="40" as="geometry"/>
                </mxCell>
                <mxCell id="69" value="操作逻辑" style="text;html=1;align=center;verticalAlign=middle;resizable=0;points=[];autosize=1;fontColor=#3333FF;labelBorderColor=none;labelBackgroundColor=none;fontSize=24;fontStyle=1" vertex="1" parent="1">
                    <mxGeometry x="70" y="60" width="110" height="30" as="geometry"/>
                </mxCell>
            </root>
        </mxGraphModel>
    </diagram>
</mxfile>